ply
format ascii 1.0
comment Created by Blender 2.72 (sub 0) - www.blender.org, source file: 'kavani.blend'
element vertex 542
property float x
property float y
property float z
property float nx
property float ny
property float nz
element face 190
property list uchar uint vertex_indices
end_header
1.071335 -1.352497 7.978831 0.100836 0.994549 -0.026536
4.355145 -1.553889 12.909237 0.100836 0.994549 -0.026536
1.170661 -1.364409 7.909829 0.100836 0.994549 -0.026536
1.071335 -1.352497 7.978831 0.100837 0.994549 -0.026537
4.255818 -1.541977 12.978238 0.100837 0.994549 -0.026537
4.305482 -1.547933 12.943737 0.100837 0.994549 -0.026537
4.305482 -1.547933 12.943737 0.100836 0.994549 -0.026536
1.170661 -1.364409 7.909829 0.262263 0.956088 -0.130818
4.450655 -1.589167 12.842886 0.262263 0.956088 -0.130818
1.266171 -1.399687 7.843479 0.262263 0.956088 -0.130818
4.355145 -1.553889 12.909237 0.262263 0.956088 -0.130818
4.402900 -1.571528 12.876061 0.262263 0.956088 -0.130818
1.266171 -1.399687 7.843479 0.413547 0.880946 -0.230030
4.538677 -1.646454 12.781738 0.413547 0.880946 -0.230030
1.354193 -1.456974 7.782331 0.413547 0.880946 -0.230030
4.450655 -1.589167 12.842886 0.570396 0.000000 0.821370
4.494666 -1.617811 12.812312 0.570396 0.000000 0.821370
4.538677 -1.646454 12.781738 0.570396 0.000000 0.821370
1.266171 -1.399687 7.843479 0.413548 0.880945 -0.230031
4.450655 -1.589167 12.842886 0.413548 0.880945 -0.230031
4.538677 -1.646454 12.781738 0.413548 0.880945 -0.230031
1.354193 -1.456974 7.782331 0.548915 0.772041 -0.320383
4.615829 -1.723551 12.728141 0.548915 0.772041 -0.320383
1.431346 -1.534070 7.728733 0.548915 0.772041 -0.320383
1.354193 -1.456974 7.782331 0.548912 0.772044 -0.320381
4.538677 -1.646454 12.781738 0.548912 0.772044 -0.320381
4.577253 -1.685003 12.754939 0.548912 0.772044 -0.320381
1.354193 -1.456974 7.782331 0.548916 0.772040 -0.320384
4.577253 -1.685003 12.754939 0.548916 0.772040 -0.320384
4.615829 -1.723551 12.728141 0.548916 0.772040 -0.320384
1.431346 -1.534070 7.728733 0.663211 0.633562 -0.398435
4.679147 -1.817493 12.684155 0.663211 0.633562 -0.398435
1.494663 -1.628013 7.684747 0.663211 0.633562 -0.398435
4.615829 -1.723551 12.728141 0.663211 0.633562 -0.398435
4.647488 -1.770522 12.706148 0.663211 0.633562 -0.398435
1.431346 -1.534070 7.728733 0.663208 0.633567 -0.398432
4.647488 -1.770522 12.706148 0.663208 0.633567 -0.398432
4.679147 -1.817493 12.684155 0.663208 0.633567 -0.398432
1.494663 -1.628013 7.684747 0.752084 0.470800 -0.461213
4.726195 -1.924671 12.651470 0.752084 0.470800 -0.461213
1.541712 -1.735190 7.652062 0.752084 0.470800 -0.461213
4.679147 -1.817493 12.684155 0.566529 0.000000 0.824042
4.702671 -1.871082 12.667812 0.566529 0.000000 0.824042
4.726195 -1.924671 12.651470 0.566529 0.000000 0.824042
1.494663 -1.628013 7.684747 0.752085 0.470797 -0.461214
4.679147 -1.817493 12.684155 0.752085 0.470797 -0.461214
4.726195 -1.924671 12.651470 0.752085 0.470797 -0.461214
1.541712 -1.735190 7.652062 0.812137 0.289957 -0.506319
4.755168 -2.040965 12.631343 0.812137 0.289957 -0.506319
1.570684 -1.851485 7.631936 0.812137 0.289957 -0.506319
4.726195 -1.924671 12.651470 0.968654 0.246581 -0.030141
4.740682 -1.982818 12.641407 0.968654 0.246581 -0.030141
4.755168 -2.040965 12.631343 0.968654 0.246581 -0.030141
1.541712 -1.735190 7.652062 0.812136 0.289958 -0.506319
4.726195 -1.924671 12.651470 0.812136 0.289958 -0.506319
4.755168 -2.040965 12.631343 0.812136 0.289958 -0.506319
1.570684 -1.851485 7.631936 0.841052 0.097929 -0.532016
4.764951 -2.161907 12.624547 0.841052 0.097929 -0.532016
1.580467 -1.972427 7.625139 0.841052 0.097929 -0.532016
1.570684 -1.851485 7.631936 0.841053 0.097925 -0.532016
4.755168 -2.040965 12.631343 0.841053 0.097925 -0.532016
4.760059 -2.101436 12.627945 0.841053 0.097925 -0.532016
1.570684 -1.851485 7.631936 0.841053 0.097926 -0.532016
4.760059 -2.101436 12.627945 0.841053 0.097926 -0.532016
4.764951 -2.161907 12.624547 0.841053 0.097926 -0.532016
1.580467 -1.972427 7.625139 0.837687 -0.097952 -0.537296
4.755168 -2.282850 12.631343 0.837687 -0.097952 -0.537296
1.570684 -2.093370 7.631936 0.837687 -0.097952 -0.537296
4.764951 -2.161907 12.624547 -0.573462 0.000000 -0.819232
4.760059 -2.222379 12.627945 -0.573462 0.000000 -0.819232
4.755168 -2.282850 12.631343 -0.573462 0.000000 -0.819232
1.580467 -1.972427 7.625139 0.837687 -0.097950 -0.537296
4.764951 -2.161907 12.624547 0.837687 -0.097950 -0.537296
4.755168 -2.282850 12.631343 0.837687 -0.097950 -0.537296
1.570684 -2.093370 7.631936 -0.155087 -0.985990 0.061416
4.554459 -2.242595 12.770775 -0.155087 -0.985990 0.061416
1.369974 -2.053115 7.771368 -0.155087 -0.985990 0.061416
4.755168 -2.282850 12.631343 -0.196345 -0.980535 0.000000
4.654813 -2.262722 12.701059 -0.196345 -0.980535 0.000000
4.554459 -2.242595 12.770775 -0.196345 -0.980535 0.000000
1.570684 -2.093370 7.631936 -0.155086 -0.985990 0.061416
4.755168 -2.282850 12.631343 -0.155086 -0.985990 0.061416
4.554459 -2.242595 12.770775 -0.155086 -0.985990 0.061416
1.369974 -2.053115 7.771368 0.735679 -0.471301 -0.486469
2.915167 -2.255033 10.303756 0.735679 -0.471301 -0.486469
1.322926 -2.160293 7.804052 0.735679 -0.471301 -0.486469
4.530934 -2.296184 12.787117 0.735680 -0.471298 -0.486470
4.507410 -2.349773 12.803459 0.735680 -0.471298 -0.486470
2.915167 -2.255033 10.303756 0.735680 -0.471298 -0.486470
1.369974 -2.053115 7.771368 0.735678 -0.471303 -0.486469
4.554459 -2.242595 12.770775 0.735678 -0.471303 -0.486469
4.530934 -2.296184 12.787117 0.735678 -0.471303 -0.486469
1.369974 -2.053115 7.771368 0.735678 -0.471302 -0.486469
4.530934 -2.296184 12.787117 0.735678 -0.471302 -0.486469
2.915167 -2.255033 10.303756 0.735678 -0.471302 -0.486469
1.322926 -2.160293 7.804052 0.640886 -0.634356 -0.432269
4.444092 -2.443715 12.847445 0.640886 -0.634356 -0.432269
1.259608 -2.254235 7.848038 0.640886 -0.634356 -0.432269
2.915167 -2.255033 10.303756 0.640883 -0.634361 -0.432267
4.507410 -2.349773 12.803459 0.640883 -0.634361 -0.432267
4.475751 -2.396744 12.825453 0.640883 -0.634361 -0.432267
1.322926 -2.160293 7.804052 0.640887 -0.634356 -0.432270
4.475751 -2.396744 12.825453 0.640887 -0.634356 -0.432270
4.444092 -2.443715 12.847445 0.640887 -0.634356 -0.432270
1.322926 -2.160293 7.804052 0.640886 -0.634357 -0.432269
2.915167 -2.255033 10.303756 0.640886 -0.634357 -0.432269
4.475751 -2.396744 12.825453 0.640886 -0.634357 -0.432269
1.259608 -2.254235 7.848038 0.521384 -0.773010 -0.361405
4.366940 -2.520811 12.901043 0.521384 -0.773010 -0.361405
1.182456 -2.331331 7.901635 0.521384 -0.773010 -0.361405
4.444092 -2.443715 12.847445 -0.625308 0.757078 0.189269
4.405516 -2.482263 12.874244 -0.625308 0.757078 0.189269
4.366940 -2.520811 12.901043 -0.625308 0.757078 0.189269
1.259608 -2.254235 7.848038 0.521383 -0.773011 -0.361404
4.444092 -2.443715 12.847445 0.521383 -0.773011 -0.361404
4.366940 -2.520811 12.901043 0.521383 -0.773011 -0.361404
1.182456 -2.331331 7.901635 0.381795 -0.881882 -0.276617
4.278918 -2.578099 12.962192 0.381795 -0.881882 -0.276617
1.094434 -2.388619 7.962784 0.381795 -0.881882 -0.276617
4.366940 -2.520811 12.901043 0.381795 -0.881882 -0.276617
4.322929 -2.549455 12.931617 0.381795 -0.881882 -0.276617
1.182456 -2.331331 7.901635 0.381792 -0.881884 -0.276615
4.322929 -2.549455 12.931617 0.381792 -0.881884 -0.276615
4.278918 -2.578099 12.962192 0.381792 -0.881884 -0.276615
1.094434 -2.388619 7.962784 0.227522 -0.956768 -0.181187
4.183408 -2.613377 13.028542 0.227522 -0.956768 -0.181187
0.998924 -2.423896 8.029134 0.227522 -0.956768 -0.181187
1.094434 -2.388619 7.962784 0.227523 -0.956768 -0.181188
4.278918 -2.578099 12.962192 0.227523 -0.956768 -0.181188
4.231163 -2.595738 12.995366 0.227523 -0.956768 -0.181188
4.231163 -2.595738 12.995366 0.227522 -0.956768 -0.181187
0.998924 -2.423896 8.029134 0.064547 -0.994797 -0.078818
4.084081 -2.625288 13.097544 0.064547 -0.994797 -0.078818
0.899597 -2.435808 8.098136 0.064547 -0.994797 -0.078818
4.183408 -2.613377 13.028542 -0.028017 0.990985 0.131007
4.133744 -2.619332 13.063042 -0.028017 0.990985 0.131007
4.084081 -2.625288 13.097544 -0.028017 0.990985 0.131007
0.998924 -2.423896 8.029134 0.064546 -0.994797 -0.078817
4.183408 -2.613377 13.028542 0.064546 -0.994797 -0.078817
4.084081 -2.625288 13.097544 0.064546 -0.994797 -0.078817
0.899597 -2.435808 8.098136 0.729307 0.519829 -0.444847
4.156491 -2.769926 13.047240 0.729307 0.519829 -0.444847
0.972008 -2.580446 8.047832 0.729307 0.519829 -0.444847
0.899597 -2.435808 8.098136 0.729308 0.519828 -0.444847
4.084081 -2.625288 13.097544 0.729308 0.519828 -0.444847
4.120286 -2.697607 13.072392 0.729308 0.519828 -0.444847
0.899597 -2.435808 8.098136 0.729308 0.519827 -0.444847
4.120286 -2.697607 13.072392 0.729308 0.519827 -0.444847
4.156491 -2.769926 13.047240 0.729308 0.519827 -0.444847
0.972008 -2.580446 8.047832 -0.262265 -0.956088 0.130819
4.060982 -2.734648 13.113590 -0.262265 -0.956088 0.130819
0.876498 -2.545168 8.114182 -0.262265 -0.956088 0.130819
4.156491 -2.769926 13.047240 -0.186454 -0.952986 0.238856
4.108737 -2.752287 13.080416 -0.186454 -0.952986 0.238856
4.060982 -2.734648 13.113590 -0.186454 -0.952986 0.238856
0.972008 -2.580446 8.047832 -0.262264 -0.956088 0.130819
4.156491 -2.769926 13.047240 -0.262264 -0.956088 0.130819
4.060982 -2.734648 13.113590 -0.262264 -0.956088 0.130819
0.876498 -2.545168 8.114182 -0.413547 -0.880946 0.230030
3.972960 -2.677361 13.174739 -0.413547 -0.880946 0.230030
0.788476 -2.487880 8.175331 -0.413547 -0.880946 0.230030
0.876498 -2.545168 8.114182 -0.413548 -0.880945 0.230031
4.060982 -2.734648 13.113590 -0.413548 -0.880945 0.230031
4.016971 -2.706004 13.144164 -0.413548 -0.880945 0.230031
0.876498 -2.545168 8.114182 -0.413546 -0.880946 0.230029
4.016971 -2.706004 13.144164 -0.413546 -0.880946 0.230029
3.972960 -2.677361 13.174739 -0.413546 -0.880946 0.230029
0.788476 -2.487880 8.175331 -0.548913 -0.772043 0.320382
3.895807 -2.600264 13.228336 -0.548913 -0.772043 0.320382
0.711323 -2.410784 8.228929 -0.548913 -0.772043 0.320382
0.788476 -2.487880 8.175331 -0.548916 -0.772040 0.320384
3.972960 -2.677361 13.174739 -0.548916 -0.772040 0.320384
3.934383 -2.638812 13.201537 -0.548916 -0.772040 0.320384
0.788476 -2.487880 8.175331 -0.548913 -0.772043 0.320381
3.934383 -2.638812 13.201537 -0.548913 -0.772043 0.320381
3.895807 -2.600264 13.228336 -0.548913 -0.772043 0.320381
0.711323 -2.410784 8.228929 -0.663210 -0.633563 0.398434
3.832490 -2.506322 13.272322 -0.663210 -0.633563 0.398434
0.648006 -2.316842 8.272915 -0.663210 -0.633563 0.398434
3.895807 -2.600264 13.228336 0.000000 0.424434 -0.905459
3.864149 -2.553293 13.250329 0.000000 0.424434 -0.905459
3.832490 -2.506322 13.272322 0.000000 0.424434 -0.905459
0.711323 -2.410784 8.228929 -0.663212 -0.633560 0.398436
3.895807 -2.600264 13.228336 -0.663212 -0.633560 0.398436
3.832490 -2.506322 13.272322 -0.663212 -0.633560 0.398436
0.648006 -2.316842 8.272915 -0.752084 -0.470798 0.461214
3.785441 -2.399144 13.305006 -0.752084 -0.470798 0.461214
0.600957 -2.209664 8.305599 -0.752084 -0.470798 0.461214
3.832490 -2.506322 13.272322 0.000000 0.291335 -0.956621
3.808966 -2.452733 13.288664 0.000000 0.291335 -0.956621
3.785441 -2.399144 13.305006 0.000000 0.291335 -0.956621
0.648006 -2.316842 8.272915 -0.752084 -0.470799 0.461213
3.832490 -2.506322 13.272322 -0.752084 -0.470799 0.461213
3.785441 -2.399144 13.305006 -0.752084 -0.470799 0.461213
0.600957 -2.209664 8.305599 -0.812137 -0.289956 0.506319
3.756469 -2.282849 13.325133 -0.812137 -0.289956 0.506319
0.571985 -2.093369 8.325727 -0.812137 -0.289956 0.506319
0.600957 -2.209664 8.305599 -0.812136 -0.289961 0.506318
3.785441 -2.399144 13.305006 -0.812136 -0.289961 0.506318
3.770955 -2.340997 13.315070 -0.812136 -0.289961 0.506318
0.600957 -2.209664 8.305599 -0.812138 -0.289954 0.506320
3.770955 -2.340997 13.315070 -0.812138 -0.289954 0.506320
3.756469 -2.282849 13.325133 -0.812138 -0.289954 0.506320
0.571985 -2.093369 8.325727 -0.841053 -0.097925 0.532016
3.746686 -2.161907 13.331929 -0.841053 -0.097925 0.532016
0.562202 -1.972427 8.332522 -0.841053 -0.097925 0.532016
0.571985 -2.093369 8.325727 -0.841053 -0.097926 0.532016
3.756469 -2.282849 13.325133 -0.841053 -0.097926 0.532016
3.751577 -2.222378 13.328531 -0.841053 -0.097926 0.532016
3.751577 -2.222378 13.328531 -0.841053 -0.097925 0.532016
0.562202 -1.972427 8.332522 -0.837686 0.097955 0.537296
3.756469 -2.040965 13.325133 -0.837686 0.097955 0.537296
0.571985 -1.851484 8.325726 -0.837686 0.097955 0.537296
3.746686 -2.161907 13.331929 -0.052195 -0.051845 -0.997290
3.751577 -2.101436 13.328531 -0.052195 -0.051845 -0.997290
3.756469 -2.040965 13.325133 -0.052195 -0.051845 -0.997290
0.562202 -1.972427 8.332522 -0.837687 0.097952 0.537296
3.746686 -2.161907 13.331929 -0.837687 0.097952 0.537296
3.756469 -2.040965 13.325133 -0.837687 0.097952 0.537296
0.571985 -1.851484 8.325726 -0.802122 0.290160 0.521927
3.785442 -1.924670 13.305006 -0.802122 0.290160 0.521927
0.600958 -1.735190 8.305599 -0.802122 0.290160 0.521927
0.571985 -1.851484 8.325726 -0.802120 0.290168 0.521926
3.756469 -2.040965 13.325133 -0.802120 0.290168 0.521926
3.770955 -1.982817 13.315069 -0.802120 0.290168 0.521926
3.770955 -1.982817 13.315069 -0.802122 0.290160 0.521927
0.600958 -1.735190 8.305599 -0.735677 0.471305 0.486468
3.832491 -1.817492 13.272322 -0.735677 0.471305 0.486468
0.648007 -1.628012 8.272914 -0.735677 0.471305 0.486468
3.785442 -1.924670 13.305006 0.566529 0.000000 0.824042
3.808966 -1.871081 13.288664 0.566529 0.000000 0.824042
3.832491 -1.817492 13.272322 0.566529 0.000000 0.824042
0.600958 -1.735190 8.305599 -0.735678 0.471301 0.486469
3.785442 -1.924670 13.305006 -0.735678 0.471301 0.486469
3.832491 -1.817492 13.272322 -0.735678 0.471301 0.486469
0.648007 -1.628012 8.272914 -0.640884 0.634360 0.432268
3.895808 -1.723550 13.228335 -0.640884 0.634360 0.432268
0.711324 -1.534070 8.228928 -0.640884 0.634360 0.432268
0.648007 -1.628012 8.272914 -0.640883 0.634361 0.432267
3.832491 -1.817492 13.272322 -0.640883 0.634361 0.432267
3.864149 -1.770521 13.250328 -0.640883 0.634361 0.432267
0.648007 -1.628012 8.272914 -0.640886 0.634357 0.432269
3.864149 -1.770521 13.250328 -0.640886 0.634357 0.432269
3.895808 -1.723550 13.228335 -0.640886 0.634357 0.432269
0.711324 -1.534070 8.228928 -0.521386 0.773009 0.361406
3.972960 -1.646454 13.174738 -0.521386 0.773009 0.361406
0.788476 -1.456974 8.175331 -0.521386 0.773009 0.361406
3.895808 -1.723550 13.228335 0.707107 -0.707107 0.000000
3.934384 -1.685002 13.201536 0.707107 -0.707107 0.000000
3.972960 -1.646454 13.174738 0.707107 -0.707107 0.000000
0.711324 -1.534070 8.228928 -0.521383 0.773011 0.361404
3.895808 -1.723550 13.228335 -0.521383 0.773011 0.361404
3.972960 -1.646454 13.174738 -0.521383 0.773011 0.361404
0.788476 -1.456974 8.175331 -0.381793 0.881883 0.276616
4.060983 -1.589167 13.113589 -0.381793 0.881883 0.276616
0.876499 -1.399686 8.114182 -0.381793 0.881883 0.276616
3.972960 -1.646454 13.174738 -0.481404 0.868374 0.119068
4.016972 -1.617810 13.144164 -0.481404 0.868374 0.119068
4.060983 -1.589167 13.113589 -0.481404 0.868374 0.119068
0.788476 -1.456974 8.175331 -0.381792 0.881884 0.276615
3.972960 -1.646454 13.174738 -0.381792 0.881884 0.276615
4.060983 -1.589167 13.113589 -0.381792 0.881884 0.276615
4.355145 -1.553889 12.909237 0.000000 0.000000 0.000000
4.450655 -1.589167 12.842886 0.000000 0.000000 0.000000
4.402900 -1.571528 12.876061 0.000000 0.000000 0.000000
4.577253 -1.685003 12.754939 0.570503 -0.000059 0.821295
4.538677 -1.646454 12.781738 0.570503 -0.000059 0.821295
4.494666 -1.617811 12.812312 0.570503 -0.000059 0.821295
4.355145 -1.553889 12.909237 0.570555 0.000059 0.821259
4.494666 -1.617811 12.812312 0.570555 0.000059 0.821259
4.450655 -1.589167 12.842886 0.570555 0.000059 0.821259
4.355145 -1.553889 12.909237 0.032974 0.991663 -0.124568
4.305482 -1.547933 12.943737 0.032974 0.991663 -0.124568
4.255818 -1.541977 12.978238 0.032974 0.991663 -0.124568
4.206156 -1.547933 13.012739 0.570517 0.000092 0.821286
4.156492 -1.553889 13.047239 0.570517 0.000092 0.821286
4.108737 -1.571528 13.080415 0.570517 0.000092 0.821286
4.355145 -1.553889 12.909237 0.570536 0.000079 0.821272
4.255818 -1.541977 12.978238 0.570536 0.000079 0.821272
4.206156 -1.547933 13.012739 0.570536 0.000079 0.821272
4.355145 -1.553889 12.909237 0.570538 0.000005 0.821271
4.577253 -1.685003 12.754939 0.570538 0.000005 0.821271
4.494666 -1.617811 12.812312 0.570538 0.000005 0.821271
4.647488 -1.770522 12.706148 0.570533 0.000005 0.821275
4.615829 -1.723551 12.728141 0.570533 0.000005 0.821275
4.577253 -1.685003 12.754939 0.570533 0.000005 0.821275
4.702671 -1.871082 12.667812 0.570563 0.000019 0.821254
4.679147 -1.817493 12.684155 0.570563 0.000019 0.821254
4.647488 -1.770522 12.706148 0.570563 0.000019 0.821254
4.740682 -1.982818 12.641407 0.570552 0.000012 0.821261
4.726195 -1.924671 12.651470 0.570552 0.000012 0.821261
4.702671 -1.871082 12.667812 0.570552 0.000012 0.821261
4.760059 -2.101436 12.627945 0.570571 0.000006 0.821248
4.755168 -2.040965 12.631343 0.570571 0.000006 0.821248
4.740682 -1.982818 12.641407 0.570571 0.000006 0.821248
4.760059 -2.222379 12.627945 0.570525 0.000000 0.821280
4.764951 -2.161907 12.624547 0.570525 0.000000 0.821280
4.760059 -2.101436 12.627945 0.570525 0.000000 0.821280
4.654813 -2.262722 12.701059 0.570538 -0.000002 0.821272
4.755168 -2.282850 12.631343 0.570538 -0.000002 0.821272
4.760059 -2.222379 12.627945 0.570538 -0.000002 0.821272
4.475751 -2.396744 12.825453 0.570563 -0.000019 0.821254
4.507410 -2.349773 12.803459 0.570563 -0.000019 0.821254
4.530934 -2.296184 12.787117 0.570563 -0.000019 0.821254
4.554459 -2.242595 12.770775 0.570534 0.000012 0.821274
4.654813 -2.262722 12.701059 0.570534 0.000012 0.821274
4.760059 -2.222379 12.627945 0.570534 0.000012 0.821274
4.475751 -2.396744 12.825453 0.570594 -0.000045 0.821232
4.530934 -2.296184 12.787117 0.570594 -0.000045 0.821232
4.554459 -2.242595 12.770775 0.570594 -0.000045 0.821232
4.405516 -2.482263 12.874244 0.570533 -0.000005 0.821275
4.444092 -2.443715 12.847445 0.570533 -0.000005 0.821275
4.475751 -2.396744 12.825453 0.570533 -0.000005 0.821275
4.322929 -2.549455 12.931617 0.570503 0.000059 0.821295
4.366940 -2.520811 12.901043 0.570503 0.000059 0.821295
4.405516 -2.482263 12.874244 0.570503 0.000059 0.821295
4.231163 -2.595738 12.995366 0.570513 0.000062 0.821288
4.278918 -2.578099 12.962192 0.570513 0.000062 0.821288
4.322929 -2.549455 12.931617 0.570513 0.000062 0.821288
4.133744 -2.619332 13.063042 0.570519 0.000069 0.821284
4.183408 -2.613377 13.028542 0.570519 0.000069 0.821284
4.231163 -2.595738 12.995366 0.570519 0.000069 0.821284
4.108737 -2.752287 13.080416 0.570543 0.000010 0.821268
4.156491 -2.769926 13.047240 0.570543 0.000010 0.821268
4.120286 -2.697607 13.072392 0.570543 0.000010 0.821268
4.084081 -2.625288 13.097544 0.570569 -0.000234 0.821250
4.133744 -2.619332 13.063042 0.570569 -0.000234 0.821250
4.231163 -2.595738 12.995366 0.570569 -0.000234 0.821250
4.108737 -2.752287 13.080416 0.570556 0.000006 0.821258
4.120286 -2.697607 13.072392 0.570556 0.000006 0.821258
4.084081 -2.625288 13.097544 0.570556 0.000006 0.821258
4.016971 -2.706004 13.144164 0.570529 0.000001 0.821277
4.060982 -2.734648 13.113590 0.570529 0.000001 0.821277
4.108737 -2.752287 13.080416 0.570529 0.000001 0.821277
3.934383 -2.638812 13.201537 0.570563 0.000051 0.821254
3.972960 -2.677361 13.174739 0.570563 0.000051 0.821254
4.016971 -2.706004 13.144164 0.570563 0.000051 0.821254
3.864149 -2.553293 13.250329 0.570575 0.000047 0.821246
3.895807 -2.600264 13.228336 0.570575 0.000047 0.821246
3.934383 -2.638812 13.201537 0.570575 0.000047 0.821246
3.808966 -2.452733 13.288664 0.570531 0.000001 0.821276
3.832490 -2.506322 13.272322 0.570531 0.000001 0.821276
3.864149 -2.553293 13.250329 0.570531 0.000001 0.821276
3.770955 -2.340997 13.315070 0.570505 -0.000019 0.821294
3.785441 -2.399144 13.305006 0.570505 -0.000019 0.821294
3.808966 -2.452733 13.288664 0.570505 -0.000019 0.821294
3.751577 -2.222378 13.328531 0.570517 -0.000001 0.821286
3.756469 -2.282849 13.325133 0.570517 -0.000001 0.821286
3.770955 -2.340997 13.315070 0.570517 -0.000001 0.821286
3.751577 -2.101436 13.328531 0.570525 0.000000 0.821280
3.746686 -2.161907 13.331929 0.570525 0.000000 0.821280
3.751577 -2.222378 13.328531 0.570525 0.000000 0.821280
3.770955 -1.982817 13.315069 0.570580 -0.000009 0.821242
3.756469 -2.040965 13.325133 0.570580 -0.000009 0.821242
3.751577 -2.101436 13.328531 0.570580 -0.000009 0.821242
3.808966 -1.871081 13.288664 0.570543 -0.000009 0.821267
3.785442 -1.924670 13.305006 0.570543 -0.000009 0.821267
3.770955 -1.982817 13.315069 0.570543 -0.000009 0.821267
3.864149 -1.770521 13.250328 0.570570 -0.000026 0.821249
3.832491 -1.817492 13.272322 0.570570 -0.000026 0.821249
3.808966 -1.871081 13.288664 0.570570 -0.000026 0.821249
3.934384 -1.685002 13.201536 0.570574 -0.000047 0.821246
3.895808 -1.723550 13.228335 0.570574 -0.000047 0.821246
3.864149 -1.770521 13.250328 0.570574 -0.000047 0.821246
4.016972 -1.617810 13.144164 0.570523 0.000009 0.821282
3.972960 -1.646454 13.174738 0.570523 0.000009 0.821282
3.934384 -1.685002 13.201536 0.570523 0.000009 0.821282
4.108737 -1.571528 13.080415 0.570514 0.000062 0.821288
4.060983 -1.589167 13.113589 0.570514 0.000062 0.821288
4.016972 -1.617810 13.144164 0.570514 0.000062 0.821288
4.355145 -1.553889 12.909237 0.570534 -0.000010 0.821274
4.206156 -1.547933 13.012739 0.570534 -0.000010 0.821274
4.108737 -1.571528 13.080415 0.570534 -0.000010 0.821274
4.355145 -1.553889 12.909237 0.570544 0.000019 0.821267
4.647488 -1.770522 12.706148 0.570544 0.000019 0.821267
4.577253 -1.685003 12.754939 0.570544 0.000019 0.821267
4.740682 -1.982818 12.641407 0.570558 0.000015 0.821257
4.702671 -1.871082 12.667812 0.570558 0.000015 0.821257
4.647488 -1.770522 12.706148 0.570558 0.000015 0.821257
4.760059 -2.222379 12.627945 0.570548 0.000000 0.821264
4.760059 -2.101436 12.627945 0.570548 0.000000 0.821264
4.740682 -1.982818 12.641407 0.570548 0.000000 0.821264
4.405516 -2.482263 12.874244 0.570516 0.000015 0.821286
4.475751 -2.396744 12.825453 0.570516 0.000015 0.821286
4.554459 -2.242595 12.770775 0.570516 0.000015 0.821286
4.554459 -2.242595 12.770775 0.570535 -0.000002 0.821273
4.760059 -2.222379 12.627945 0.570535 -0.000002 0.821273
4.740682 -1.982818 12.641407 0.570535 -0.000002 0.821273
4.355145 -1.553889 12.909237 0.570534 -0.000001 0.821274
4.740682 -1.982818 12.641407 0.570534 -0.000001 0.821274
4.647488 -1.770522 12.706148 0.570534 -0.000001 0.821274
4.355145 -1.553889 12.909237 0.570533 0.000004 0.821275
4.108737 -1.571528 13.080415 0.570533 0.000004 0.821275
4.016972 -1.617810 13.144164 0.570533 0.000004 0.821275
4.016972 -1.617810 13.144164 0.570512 0.000029 0.821289
3.934384 -1.685002 13.201536 0.570512 0.000029 0.821289
3.864149 -1.770521 13.250328 0.570512 0.000029 0.821289
3.864149 -1.770521 13.250328 0.570558 -0.000016 0.821258
3.808966 -1.871081 13.288664 0.570558 -0.000016 0.821258
3.770955 -1.982817 13.315069 0.570558 -0.000016 0.821258
3.770955 -1.982817 13.315069 0.570543 -0.000000 0.821268
3.751577 -2.101436 13.328531 0.570543 -0.000000 0.821268
3.751577 -2.222378 13.328531 0.570543 -0.000000 0.821268
3.751577 -2.222378 13.328531 0.570562 0.000010 0.821255
3.770955 -2.340997 13.315070 0.570562 0.000010 0.821255
3.808966 -2.452733 13.288664 0.570562 0.000010 0.821255
3.808966 -2.452733 13.288664 0.570547 0.000014 0.821265
3.864149 -2.553293 13.250329 0.570547 0.000014 0.821265
3.934383 -2.638812 13.201537 0.570547 0.000014 0.821265
3.934383 -2.638812 13.201537 0.570519 -0.000030 0.821285
4.016971 -2.706004 13.144164 0.570519 -0.000030 0.821285
4.108737 -2.752287 13.080416 0.570519 -0.000030 0.821285
4.084081 -2.625288 13.097544 0.570538 -0.000011 0.821271
4.231163 -2.595738 12.995366 0.570538 -0.000011 0.821271
4.322929 -2.549455 12.931617 0.570538 -0.000011 0.821271
3.934383 -2.638812 13.201537 0.570531 -0.000001 0.821276
4.108737 -2.752287 13.080416 0.570531 -0.000001 0.821276
4.084081 -2.625288 13.097544 0.570531 -0.000001 0.821276
3.751577 -2.222378 13.328531 0.570532 -0.000001 0.821275
3.808966 -2.452733 13.288664 0.570532 -0.000001 0.821275
3.934383 -2.638812 13.201537 0.570532 -0.000001 0.821275
3.864149 -1.770521 13.250328 0.570531 0.000002 0.821276
3.770955 -1.982817 13.315069 0.570531 0.000002 0.821276
3.751577 -2.222378 13.328531 0.570531 0.000002 0.821276
4.355145 -1.553889 12.909237 0.570534 -0.000004 0.821274
4.016972 -1.617810 13.144164 0.570534 -0.000004 0.821274
3.864149 -1.770521 13.250328 0.570534 -0.000004 0.821274
4.554459 -2.242595 12.770775 0.570534 -0.000001 0.821274
4.322929 -2.549455 12.931617 0.570539 -0.000006 0.821271
4.405516 -2.482263 12.874244 0.570539 -0.000006 0.821271
4.554459 -2.242595 12.770775 0.570539 -0.000006 0.821271
3.934383 -2.638812 13.201537 0.570529 0.000031 0.821277
4.084081 -2.625288 13.097544 0.570529 0.000031 0.821277
4.322929 -2.549455 12.931617 0.570529 0.000031 0.821277
3.864149 -1.770521 13.250328 0.570534 0.000000 0.821274
3.751577 -2.222378 13.328531 0.570534 0.000000 0.821274
3.934383 -2.638812 13.201537 0.570534 0.000000 0.821274
4.355145 -1.553889 12.909237 0.570533 -0.000001 0.821274
3.864149 -1.770521 13.250328 0.570533 -0.000001 0.821274
4.554459 -2.242595 12.770775 0.570533 -0.000001 0.821274
3.934383 -2.638812 13.201537 0.570534 -0.000001 0.821274
4.322929 -2.549455 12.931617 0.570534 -0.000001 0.821274
4.554459 -2.242595 12.770775 0.570534 0.000000 0.821274
0.972009 -1.364409 8.047832 -0.064546 0.994797 0.078817
4.255818 -1.541977 12.978238 -0.064546 0.994797 0.078817
1.071335 -1.352497 7.978831 -0.064546 0.994797 0.078817
4.156492 -1.553889 13.047239 0.031003 0.976495 0.213298
4.206156 -1.547933 13.012739 0.031003 0.976495 0.213298
4.255818 -1.541977 12.978238 0.031003 0.976495 0.213298
0.972009 -1.364409 8.047832 -0.064546 0.994797 0.078818
4.156492 -1.553889 13.047239 -0.064546 0.994797 0.078818
4.255818 -1.541977 12.978238 -0.064546 0.994797 0.078818
0.876499 -1.399686 8.114182 -0.227521 0.956768 0.181187
4.156492 -1.553889 13.047239 -0.227521 0.956768 0.181187
0.972009 -1.364409 8.047832 -0.227521 0.956768 0.181187
4.060983 -1.589167 13.113589 -0.412620 0.903834 -0.113268
4.108737 -1.571528 13.080415 -0.412620 0.903834 -0.113268
4.156492 -1.553889 13.047239 -0.412620 0.903834 -0.113268
0.876499 -1.399686 8.114182 -0.227523 0.956768 0.181188
4.060983 -1.589167 13.113589 -0.227523 0.956768 0.181188
4.156492 -1.553889 13.047239 -0.227523 0.956768 0.181188
1.071335 -1.352497 7.978831 -0.570539 0.000022 -0.821271
0.876499 -1.399686 8.114182 -0.570539 0.000022 -0.821271
0.972009 -1.364409 8.047832 -0.570539 0.000022 -0.821271
0.711324 -1.534070 8.228928 -0.570544 0.000023 -0.821267
0.788476 -1.456974 8.175331 -0.570544 0.000023 -0.821267
0.876499 -1.399686 8.114182 -0.570544 0.000023 -0.821267
0.600958 -1.735190 8.305599 -0.570525 -0.000010 -0.821280
0.648007 -1.628012 8.272914 -0.570525 -0.000010 -0.821280
0.711324 -1.534070 8.228928 -0.570525 -0.000010 -0.821280
0.562202 -1.972427 8.332522 -0.570488 -0.000011 -0.821306
0.571985 -1.851484 8.325726 -0.570488 -0.000011 -0.821306
0.600958 -1.735190 8.305599 -0.570488 -0.000011 -0.821306
0.600957 -2.209664 8.305599 -0.570548 -0.000003 -0.821264
0.571985 -2.093369 8.325727 -0.570548 -0.000003 -0.821264
0.562202 -1.972427 8.332522 -0.570548 -0.000003 -0.821264
0.711323 -2.410784 8.228929 -0.570545 -0.000009 -0.821266
0.648006 -2.316842 8.272915 -0.570545 -0.000009 -0.821266
0.600957 -2.209664 8.305599 -0.570545 -0.000009 -0.821266
0.876498 -2.545168 8.114182 -0.570531 0.000009 -0.821276
0.788476 -2.487880 8.175331 -0.570531 0.000009 -0.821276
0.711323 -2.410784 8.228929 -0.570531 0.000009 -0.821276
0.899597 -2.435808 8.098136 -0.570533 0.000003 -0.821275
0.972008 -2.580446 8.047832 -0.570533 0.000003 -0.821275
0.876498 -2.545168 8.114182 -0.570533 0.000003 -0.821275
1.094434 -2.388619 7.962784 -0.570537 0.000016 -0.821272
0.998924 -2.423896 8.029134 -0.570537 0.000016 -0.821272
0.899597 -2.435808 8.098136 -0.570537 0.000016 -0.821272
1.259608 -2.254235 7.848038 -0.570538 0.000008 -0.821271
1.182456 -2.331331 7.901635 -0.570538 0.000008 -0.821271
1.094434 -2.388619 7.962784 -0.570538 0.000008 -0.821271
1.369974 -2.053115 7.771368 -0.570522 -0.000010 -0.821282
1.322926 -2.160293 7.804052 -0.570522 -0.000010 -0.821282
1.259608 -2.254235 7.848038 -0.570522 -0.000010 -0.821282
1.580467 -1.972427 7.625139 -0.570535 -0.000002 -0.821274
1.570684 -2.093370 7.631936 -0.570535 -0.000002 -0.821274
1.369974 -2.053115 7.771368 -0.570535 -0.000002 -0.821274
1.541712 -1.735190 7.652062 -0.570517 0.000004 -0.821286
1.570684 -1.851485 7.631936 -0.570517 0.000004 -0.821286
1.580467 -1.972427 7.625139 -0.570517 0.000004 -0.821286
1.431346 -1.534070 7.728733 -0.570522 0.000010 -0.821282
1.494663 -1.628013 7.684747 -0.570522 0.000010 -0.821282
1.541712 -1.735190 7.652062 -0.570522 0.000010 -0.821282
1.266171 -1.399687 7.843479 -0.570532 0.000007 -0.821275
1.354193 -1.456974 7.782331 -0.570532 0.000007 -0.821275
1.431346 -1.534070 7.728733 -0.570532 0.000007 -0.821275
1.071335 -1.352497 7.978831 -0.570534 0.000000 -0.821274
1.170661 -1.364409 7.909829 -0.570534 0.000000 -0.821274
1.266171 -1.399687 7.843479 -0.570534 0.000000 -0.821274
1.071335 -1.352497 7.978831 -0.570536 0.000008 -0.821272
0.711324 -1.534070 8.228928 -0.570536 0.000008 -0.821272
0.876499 -1.399686 8.114182 -0.570536 0.000008 -0.821272
0.562202 -1.972427 8.332522 -0.570540 0.000002 -0.821270
0.600958 -1.735190 8.305599 -0.570540 0.000002 -0.821270
0.711324 -1.534070 8.228928 -0.570540 0.000002 -0.821270
0.711323 -2.410784 8.228929 -0.570533 0.000001 -0.821274
0.600957 -2.209664 8.305599 -0.570533 0.000001 -0.821274
0.562202 -1.972427 8.332522 -0.570533 0.000001 -0.821274
0.899597 -2.435808 8.098136 -0.570534 0.000003 -0.821274
0.876498 -2.545168 8.114182 -0.570534 0.000003 -0.821274
0.711323 -2.410784 8.228929 -0.570534 0.000003 -0.821274
1.259608 -2.254235 7.848038 -0.570536 0.000004 -0.821273
1.094434 -2.388619 7.962784 -0.570536 0.000004 -0.821273
0.899597 -2.435808 8.098136 -0.570536 0.000004 -0.821273
1.541712 -1.735190 7.652062 -0.570535 -0.000000 -0.821273
1.580467 -1.972427 7.625139 -0.570535 -0.000000 -0.821273
1.369974 -2.053115 7.771368 -0.570535 -0.000000 -0.821273
1.369974 -2.053115 7.771368 -0.570534 -0.000000 -0.821274
1.259608 -2.254235 7.848038 -0.570534 -0.000000 -0.821274
0.899597 -2.435808 8.098136 -0.570534 -0.000000 -0.821274
0.899597 -2.435808 8.098136 -0.570534 0.000001 -0.821274
0.711323 -2.410784 8.228929 -0.570534 0.000001 -0.821274
0.562202 -1.972427 8.332522 -0.570534 0.000001 -0.821274
1.071335 -1.352497 7.978831 -0.570533 -0.000002 -0.821275
0.562202 -1.972427 8.332522 -0.570533 -0.000002 -0.821275
0.711324 -1.534070 8.228928 -0.570533 -0.000002 -0.821275
1.071335 -1.352497 7.978831 -0.570533 0.000005 -0.821275
1.266171 -1.399687 7.843479 -0.570533 0.000005 -0.821275
1.431346 -1.534070 7.728733 -0.570533 0.000005 -0.821275
1.431346 -1.534070 7.728733 -0.570535 -0.000000 -0.821273
0.562202 -1.972427 8.332522 -0.570534 0.000000 -0.821274
1.431346 -1.534070 7.728733 -0.570534 0.000000 -0.821274
3 0 1 2
3 3 4 5
3 0 6 1
3 7 8 9
3 7 10 11
3 7 11 8
3 12 13 14
3 15 16 17
3 18 19 20
3 21 22 23
3 24 25 26
3 27 28 29
3 30 31 32
3 30 33 34
3 35 36 37
3 38 39 40
3 41 42 43
3 44 45 46
3 47 48 49
3 50 51 52
3 53 54 55
3 56 57 58
3 59 60 61
3 62 63 64
3 65 66 67
3 68 69 70
3 71 72 73
3 74 75 76
3 77 78 79
3 80 81 82
3 83 84 85
3 86 87 88
3 89 90 91
3 92 93 94
3 95 96 97
3 98 99 100
3 101 102 103
3 104 105 106
3 107 108 109
3 110 111 112
3 113 114 115
3 116 117 118
3 116 119 120
3 121 122 123
3 124 125 126
3 127 128 129
3 124 130 125
3 131 132 133
3 134 135 136
3 137 138 139
3 140 141 142
3 143 144 145
3 146 147 148
3 149 150 151
3 152 153 154
3 155 156 157
3 158 159 160
3 161 162 163
3 164 165 166
3 167 168 169
3 170 171 172
3 173 174 175
3 176 177 178
3 179 180 181
3 182 183 184
3 185 186 187
3 188 189 190
3 191 192 193
3 194 195 196
3 197 198 199
3 200 201 202
3 203 204 205
3 206 207 208
3 203 209 204
3 210 211 212
3 213 214 215
3 216 217 218
3 219 220 221
3 222 223 224
3 219 225 220
3 226 227 228
3 229 230 231
3 232 233 234
3 235 236 237
3 238 239 240
3 241 242 243
3 244 245 246
3 247 248 249
3 250 251 252
3 253 254 255
3 256 257 258
3 259 260 261
3 262 263 264
3 265 266 267
3 268 269 270
3 271 272 273
3 274 275 276
3 277 278 279
3 280 281 282
3 283 284 285
3 286 287 288
3 289 290 291
3 292 293 294
3 295 296 297
3 298 299 300
3 301 302 303
3 304 305 306
3 307 308 309
3 310 311 312
3 313 314 315
3 316 317 318
3 319 320 321
3 322 323 324
3 325 326 327
3 328 329 330
3 331 332 333
3 334 335 336
3 337 338 339
3 340 341 342
3 343 344 345
3 346 347 348
3 349 350 351
3 352 353 354
3 355 356 357
3 358 359 360
3 361 362 363
3 364 365 366
3 367 368 369
3 370 371 372
3 373 374 375
3 376 377 378
3 379 380 381
3 382 383 384
3 385 386 387
3 388 389 390
3 391 392 393
3 394 395 396
3 397 398 399
3 400 401 402
3 403 404 405
3 406 407 408
3 409 410 411
3 412 413 414
3 415 416 417
3 418 419 420
3 421 422 423
3 424 425 426
3 388 427 389
3 428 429 430
3 431 432 433
3 434 435 436
3 437 438 439
3 440 441 427
3 434 436 442
3 443 444 445
3 446 447 448
3 449 450 451
3 452 453 454
3 455 456 457
3 458 459 460
3 461 462 463
3 464 465 466
3 467 468 469
3 470 471 472
3 473 474 475
3 476 477 478
3 479 480 481
3 482 483 484
3 485 486 487
3 488 489 490
3 491 492 493
3 494 495 496
3 497 498 499
3 500 501 502
3 503 504 505
3 506 507 508
3 509 510 511
3 512 513 514
3 515 516 517
3 518 519 520
3 521 522 523
3 524 525 526
3 527 528 529
3 530 531 532
3 533 534 535
3 536 537 538
3 539 524 526
3 527 529 540
3 506 541 540
3 541 527 540
